# Blender v2.59 (sub 0) OBJ File: 'plane2_parts.blend'
# www.blender.org
mtllib plane2_parts.mtl
o plane_rudder
v 0.018652 0.140822 0.684396
v 0.050000 0.140822 0.990808
v -0.050000 0.140822 0.990808
v -0.018652 0.140822 0.684395
v 0.018652 0.440822 0.684396
v 0.050000 0.440822 0.990808
v -0.050000 0.440822 0.990808
v -0.018652 0.440822 0.684396
vn 0.994807 0.000000 -0.101776
vn 0.000002 0.000000 -1.000000
vn 0.000003 0.000000 -1.000000
vn -0.994807 -0.000000 -0.101776
vn -0.000001 -0.000000 1.000000
vn -0.000002 0.000000 1.000000
vn -0.000000 1.000000 0.000000
vn 0.000000 -1.000000 -0.000000
usemtl 
s off
f 1//1 5//1 2//1
f 5//1 6//1 2//1
f 5//2 1//2 4//2
f 5//3 4//3 8//3
f 3//4 7//4 8//4
f 3//4 8//4 4//4
f 2//5 6//5 3//5
f 6//6 7//6 3//6
f 5//7 8//7 6//7
f 8//7 7//7 6//7
f 1//8 2//8 3//8
f 1//8 3//8 4//8
o plane_wings
v 1.329644 -0.066482 -0.329447
v 1.217580 -0.060879 -0.005428
v -1.217580 -0.060879 -0.005428
v -1.329644 -0.066482 -0.329447
v 1.329645 0.066482 -0.329446
v 1.217579 0.060879 -0.005428
v -1.217580 0.060879 -0.005428
v -1.329644 0.066482 -0.329447
vn 0.000000 0.000001 -1.000000
vn 0.000000 0.000000 -1.000000
vn -0.945073 -0.000002 0.326859
vn -0.945073 -0.000004 0.326859
vn -0.000000 -0.000001 1.000000
vn -0.000000 0.000000 1.000000
vn 0.945072 -0.000004 0.326861
vn 0.945071 0.000005 0.326864
vn -0.000000 0.999851 0.017290
vn -0.000000 -0.999851 0.017290
usemtl 
s off
f 13//9 9//9 12//9
f 13//10 12//10 16//10
f 11//11 15//11 16//11
f 11//12 16//12 12//12
f 10//13 14//13 11//13
f 14//14 15//14 11//14
f 9//15 13//15 10//15
f 13//16 14//16 10//16
f 13//17 16//17 14//17
f 16//17 15//17 14//17
f 9//18 10//18 11//18
f 9//18 11//18 12//18
o plane_body
v 0.200000 -0.150000 -1.000000
v 0.200000 -0.150000 1.000000
v -0.200000 -0.150000 1.000000
v -0.200000 -0.150000 -1.000000
v 0.200000 0.150000 -0.999999
v 0.200000 0.150000 1.000001
v -0.200000 0.150000 1.000000
v -0.200000 0.150000 -1.000000
v -0.111725 -0.083794 -1.201509
v -0.111725 0.083794 -1.201508
v 0.111725 -0.083794 -1.201508
v 0.111726 0.083794 -1.201508
v 0.026610 -0.019956 -1.343601
v -0.026609 -0.019956 -1.343601
v 0.026610 0.019957 -1.343601
v -0.026609 0.019957 -1.343601
v -0.178885 -0.134164 1.022332
v -0.178885 0.134164 1.022332
v 0.178885 -0.134164 1.022332
v 0.178885 0.134164 1.022332
vn -1.000000 -0.000000 -0.000000
vn 1.000000 -0.000000 0.000000
vn -0.857864 0.000001 -0.513876
vn -0.857865 -0.000000 -0.513876
vn 0.857866 0.000000 -0.513874
vn 0.000000 0.912174 -0.409804
vn 0.000000 0.912174 -0.409803
vn 0.000000 -0.912173 -0.409806
vn 0.000000 -0.950037 -0.312138
vn 0.000000 0.950038 -0.312136
vn 0.915966 0.000000 -0.401256
vn -0.915965 0.000000 -0.401258
vn -0.000000 -0.815723 0.578443
vn 0.000000 -0.815721 0.578445
vn -0.000001 0.815723 0.578443
vn 0.000000 0.815712 0.578458
vn 0.726625 -0.000001 0.687035
vn 0.726633 0.000000 0.687025
vn -0.726635 0.000000 0.687024
vn -0.726635 0.000000 0.687023
usemtl 
s off
f 19//19 23//19 24//19
f 19//19 24//19 20//19
f 17//20 21//20 18//20
f 21//20 22//20 18//20
f 21//7 24//7 22//7
f 24//7 23//7 22//7
f 17//8 18//8 19//8
f 17//8 19//8 20//8
f 29//10 30//10 32//10
f 29//10 32//10 31//10
f 25//21 26//21 30//21
f 26//22 32//22 30//22
f 28//23 27//23 29//23
f 28//23 29//23 31//23
f 26//24 28//24 32//24
f 28//25 31//25 32//25
f 27//26 25//26 30//26
f 27//26 30//26 29//26
f 17//27 20//27 25//27
f 17//27 25//27 27//27
f 24//28 21//28 26//28
f 21//28 28//28 26//28
f 21//29 17//29 27//29
f 21//29 27//29 28//29
f 20//30 24//30 25//30
f 24//30 26//30 25//30
f 36//14 34//14 33//14
f 35//14 36//14 33//14
f 19//31 18//31 33//31
f 18//32 35//32 33//32
f 22//33 23//33 34//33
f 22//34 34//34 36//34
f 18//35 22//35 36//35
f 18//36 36//36 35//36
f 23//37 19//37 33//37
f 23//38 33//38 34//38
